<?xml version="1.0" standalone="no"?>
<!DOCTYPE svg PUBLIC "-//W3C//DTD SVG 20010904//EN"
 "http://www.w3.org/TR/2001/REC-SVG-20010904/DTD/svg10.dtd">
<svg version="1.0" xmlns="http://www.w3.org/2000/svg"
 width="512.000000pt" height="512.000000pt" viewBox="0 0 512.000000 512.000000"
 preserveAspectRatio="xMidYMid meet">

<g transform="translate(0.000000,512.000000) scale(0.100000,-0.100000)"
fill="#000000" stroke="none">
<path d="M414 4651 c-23 -10 -52 -34 -65 -52 l-24 -34 0 -1622 0 -1622 21 -28
c11 -15 36 -38 54 -51 l33 -22 1323 0 c913 0 1331 3 1351 11 30 11 73 47 73
61 0 4 -12 8 -26 8 -47 0 -206 42 -293 77 -311 125 -526 368 -617 695 -32 115
-44 352 -24 476 74 464 415 802 887 880 l103 17 0 546 0 546 -23 44 c-13 24
-39 53 -58 64 -34 20 -51 20 -1354 22 -1271 3 -1322 2 -1361 -16z m1917 -350
c16 -16 29 -39 29 -51 0 -29 -26 -76 -45 -84 -9 -3 -259 -6 -556 -6 l-540 0
-24 25 c-35 34 -33 78 4 116 l29 29 537 0 537 0 29 -29z m508 -528 c12 -10 24
-35 28 -55 5 -32 1 -41 -25 -68 l-30 -30 -1047 0 -1047 0 -29 29 c-37 38 -39
82 -4 116 l24 25 1054 0 c990 0 1056 -1 1076 -17z m-669 -513 c42 -42 32 -111
-20 -137 -19 -10 -181 -13 -728 -13 l-704 0 -29 29 c-37 38 -39 82 -4 116 l24
25 721 0 c704 0 720 0 740 -20z m-106 -511 c26 -21 35 -65 20 -104 -17 -45
-25 -45 -714 -45 l-652 0 -29 29 c-37 38 -39 82 -4 116 l24 25 664 0 c657 0
665 0 691 -21z m-20 -510 c26 -21 35 -65 20 -104 -17 -44 -26 -45 -704 -45
l-642 0 -29 29 c-37 38 -39 82 -4 116 l24 25 654 0 c647 0 655 0 681 -21z"/>
<path d="M3380 3671 l0 -228 90 -17 c157 -29 344 -110 452 -196 20 -17 40 -30
43 -30 3 0 5 111 3 248 -3 235 -4 249 -26 290 -33 62 -96 118 -158 142 -47 17
-78 20 -229 20 l-175 0 0 -229z"/>
<path d="M3145 3264 c-394 -61 -691 -356 -761 -757 -37 -213 20 -469 146 -652
118 -172 317 -311 525 -366 114 -30 297 -31 418 -1 426 105 707 454 707 878 0
494 -383 884 -885 899 -66 2 -133 1 -150 -1z m174 -149 c32 -16 41 -33 41 -76
0 -51 -35 -76 -121 -84 -160 -15 -288 -78 -402 -198 -59 -63 -71 -71 -103 -71
-68 0 -106 77 -68 134 53 79 172 178 279 233 124 62 313 94 374 62z"/>
<path d="M4239 1888 c-51 -102 -114 -191 -194 -272 l-74 -76 237 -185 c270
-211 298 -226 398 -205 107 22 194 139 194 260 0 54 -27 131 -58 166 -15 18
-121 105 -237 194 -115 90 -215 167 -222 172 -9 7 -21 -8 -44 -54z"/>
<path d="M3774 1412 c-107 -55 -298 -112 -373 -112 -24 0 -30 -7 -50 -54 -26
-65 -94 -136 -159 -168 l-47 -23 -1028 -3 -1028 -2 3 -198 c3 -193 4 -198 30
-243 36 -61 94 -112 154 -135 47 -18 96 -19 1259 -19 l1210 0 46 21 c63 29
120 83 149 141 25 48 25 49 27 378 l3 330 -73 56 -73 56 -50 -25z"/>
</g>
</svg>
