<?xml version="1.0" standalone="no"?>
<!DOCTYPE svg PUBLIC "-//W3C//DTD SVG 20010904//EN"
 "http://www.w3.org/TR/2001/REC-SVG-20010904/DTD/svg10.dtd">
<svg version="1.0" xmlns="http://www.w3.org/2000/svg"
 width="512.000000pt" height="512.000000pt" viewBox="0 0 512.000000 512.000000"
 preserveAspectRatio="xMidYMid meet">

<g transform="translate(0.000000,512.000000) scale(0.100000,-0.100000)"
fill="#000000" stroke="none">
<path d="M2355 5114 c-325 -38 -555 -95 -804 -201 -236 -101 -504 -270 -681
-431 l-55 -50 142 -144 c91 -92 144 -154 149 -172 14 -58 -44 -116 -102 -102
-19 5 -80 58 -171 149 l-142 141 -22 -20 c-33 -30 -173 -205 -227 -286 -255
-379 -398 -791 -437 -1265 l-7 -82 212 -3 212 -3 24 -28 c31 -36 31 -78 0
-114 l-24 -28 -212 -3 -212 -3 6 -77 c42 -479 173 -867 424 -1248 60 -91 203
-274 241 -308 l22 -20 142 141 c91 91 152 144 171 149 58 14 116 -44 102 -102
-5 -19 -58 -80 -149 -171 l-141 -142 20 -22 c35 -40 218 -182 314 -245 375
-246 768 -379 1242 -420 l77 -6 3 212 3 212 28 24 c36 31 78 31 114 0 l28 -24
3 -212 3 -212 87 7 c451 34 879 181 1243 425 94 64 273 204 303 239 l20 22
-141 142 c-91 91 -144 152 -149 171 -14 58 44 116 102 102 19 -5 80 -58 171
-149 l142 -141 22 20 c40 36 182 218 245 314 249 381 378 765 420 1242 l6 77
-212 3 -212 3 -24 28 c-31 36 -31 78 0 114 l24 28 212 3 212 3 -6 77 c-42 479
-173 867 -424 1248 -60 91 -203 274 -241 308 l-22 20 -142 -141 c-91 -91 -152
-144 -171 -149 -58 -14 -116 44 -102 102 5 19 58 80 149 171 l141 142 -20 22
c-34 39 -217 181 -322 251 -362 238 -777 379 -1224 413 l-87 7 -3 -212 -3
-212 -28 -24 c-16 -13 -41 -24 -57 -24 -16 0 -41 11 -57 24 l-28 24 -3 211 -3
211 -42 -1 c-23 -1 -55 -4 -72 -5z m266 -810 l24 -26 3 -859 c2 -709 0 -864
-11 -891 -13 -31 -49 -49 -643 -326 -347 -160 -636 -292 -642 -292 -48 0 -92
56 -84 106 5 36 32 52 234 146 106 49 367 171 580 270 l388 180 2 833 3 833
24 26 c34 36 88 36 122 0z"/>
</g>
</svg>
