<svg width="48" height="48" viewBox="0 0 48 48" fill="none" xmlns="http://www.w3.org/2000/svg">
<circle cx="24" cy="24" r="24" fill="#3671B2"/>
<path d="M33 24C33 31 24 37 24 37C24 37 15 31 15 24C15 21.6131 15.9482 19.3239 17.636 17.636C19.3239 15.9482 21.6131 15 24 15C26.3869 15 28.6761 15.9482 30.364 17.636C32.0518 19.3239 33 21.6131 33 24Z" stroke="#F6F6F6" stroke-width="2" stroke-linecap="round" stroke-linejoin="round"/>
<path d="M24 27C25.6569 27 27 25.6569 27 24C27 22.3431 25.6569 21 24 21C22.3431 21 21 22.3431 21 24C21 25.6569 22.3431 27 24 27Z" stroke="#F6F6F6" stroke-width="2" stroke-linecap="round" stroke-linejoin="round"/>
</svg>
