<?xml version="1.0" encoding="UTF-8"?>
<svg version="1.1" viewBox="0 0 2048 760" width="1280" height="1280" xmlns="http://www.w3.org/2000/svg">
<path transform="translate(506)" d="m0 0h40l34 3 1 1v15l-1 13v18l4 9 5 8 7 6 9 4 10 2h14l16-4 16-8 24-16 11-8 6 1 21 13 16 12 13 11-1 4-23 35-5 13-1 5v12l4 11 4 6 8 7 12 5 5 1h17l41-8 4 1 7 19 6 22 3 15v7l-25 16-12 8-10 8-8 9-6 10-3 8-1 12 2 11 5 10 8 7 8 4 37 11-1 9-8 27-11 29-5 10-48 9-15 6-12 8-8 7-8 11-5 11-2 10v8l2 9 6 10 16 21 1 4-7 8h-157l5-5 11-10 8-7 14-13 7-8 11-12 11-14 13-18 13-21 12-23 10-25 7-22 5-22 3-25v-30l-3-23-4-17-6-18-9-19-10-16-11-14-12-13-14-12-18-12-21-11-24-9-25-6-19-3-12-1h-37l-28 3-30 6-27 8-29 11-23 11h62l24-7 25-5 26-3h36l25 3 25 6 21 8 16 8 14 9 10 8 10 9 7 7 10 13 8 13 8 16 6 17 4 17 2 14v37l-4 25-6 23-8 22-13 27-12 20-12 17-13 16-12 14-19 19-8 7-17 14-18 13-5 3h-199l-12-4-11-7-9-10-6-12-2-9v-15l4-13 6-10 203-203 3-7v-7l-4-8-6-4-3-1-143-1-6-5-7-2-10 1-6 4-4 5-2 4v12l5 8 5 4 11 2 9-3 6-5h118l-2 4-184 184-7 10-6 12-4 15v23l4 15 8 16 10 12 12 9 15 7 12 3 8 1 366 1-19 19-8 7-1 1-8-1-29-10-5-1h-20l-15 4-17 9-10 8-8 11-6 12-2 9-2 39-5 4-26 12-30 12-21 7-19-28-7-7-10-5-7-2h-21l-15 4-14 7-10 8-8 9-15 24-9 14-3 2h-42l-32-3-3-1 2-40-3-12-6-9-7-6-12-5-3-1v-2l-19 1-15 4-17 9-11 8-22 15-4-1-16-9-17-12-10-8-9-8 7-11 10-16 7-11 5-12 1-4v-15l-4-11-9-10-12-6-8-2h-16l-40 8h-6l-9-25-6-24-2-14 26-17 15-10 11-10 9-14 4-11 1-5v-12l-3-10-9-11-8-5-18-6-23-7 6-23 10-29 8-18 2-2 44-8 14-5 12-7 11-9 8-10 7-14 2-8v-14l-4-11-13-18-7-9 1-5 1-1h160l-5 5-12 11-8 7-22 22-9 11-13 16-16 24-12 21-11 23-9 25-6 21-5 30-1 14v18l2 21 5 24 6 18 11 23 10 15 11 14 17 17 13 10 18 11 16 8 15 6 20 6 25 5 20 2h36l28-3 26-5 28-8 25-9 24-11 4-2h-58l-24 7-25 5-26 3h-38l-24-3-21-5-20-7-19-9-16-10-13-11-8-7-7-8-10-13-10-17-8-19-5-17-3-18-1-10v-24l3-25 6-25 8-23 9-20 9-17 12-19 11-15 8-10 12-14 26-26 11-9 15-12 17-12h199l12 4 10 6 9 9 6 10 3 10 1 14-3 14-6 11-9 10-196 196-2 4v11l4 7 8 4 143 1 9 6 10 1 8-3 5-4 4-9v-8l-5-10-8-5-8-1-10 3-5 5h-119l2-4 16-15 166-166 9-12 7-14 3-11 1-7v-16l-4-17-8-16-8-10-10-9-14-8-17-5-10-1-370-1 6-7 7-7 8-7 10-9 9 2 27 9 5 1h20l15-4 14-7 14-11 8-10 7-14 2-7 1-11 1-30 19-10 31-13 28-10 3 1 12 18 8 11 9 7 11 4 6 1h12l15-3 12-5 12-7 12-11 7-10 16-26 4-6z" fill="#226CB0"/>
<path transform="translate(1051,11)" d="m0 0h535l-6 7-13 12-16 15-13 12-16 15-13 12-16 15-13 12-16 15-13 12-16 15-13 12-16 15-13 12-16 15-13 12-16 15-13 12-45 42-13 12-16 15-13 12-16 15-13 12-16 15-13 12-4 4 300 1v104h-566l5-6 8-7 7-7 8-7 17-16 15-14 13-12 16-15 13-12 16-15 13-12 16-15 13-12 16-15 13-12 16-15 13-12 16-15 13-12 16-15 13-12 16-15 13-12 16-15 13-12 16-15 13-12 16-15 13-12 9-8-269-1-1-1z" fill="#EC2028"/>
<path transform="translate(1874,148)" d="m0 0 21 1 19 3 18 5 21 9 17 10 14 11 12 11 8 8 11 14 10 15 8 15 7 19 5 19 3 24v25l-2 19-1 3h-257l6 15 7 12 8 10 6 7 10 8 14 8 14 5 10 2h28l17-4 16-7 10-7 10-9 7-10 2-4h84l-2 9-7 16-8 15-8 11-11 13-9 9-17 13-15 9-17 8-18 6-19 4-18 2h-25l-23-3-19-5-20-8-16-9-14-10-10-9-8-7-11-12-11-15-11-19-8-20-5-17-3-18-1-12v-23l2-19 4-19 6-18 9-19 9-14 10-13 11-12 9-9 14-11 14-9 16-8 15-6 20-5 14-2zm-10 73-18 4-17 8-13 10-8 8-10 14-8 15-5 15v1h180l-2-10-7-16-7-11-12-14-11-9-14-8-14-5-12-2z" fill="#226CB0"/>
<path transform="translate(506)" d="m0 0h40l34 3 1 1v15l-1 13v18l4 9 5 8 7 6 9 4 10 2h14l16-4 16-8 24-16 11-8 6 1 21 13 16 12 13 11-1 4-23 35-5 13-1 5v12l4 11 4 6 8 7 12 5 5 1h17l41-8 4 1 7 19 6 22 3 15v7l-25 16-12 8-10 8-8 9-6 10-3 8-1 12 2 11 5 10 8 7 8 4 37 11-1 9-8 27-11 29-5 10-48 9-15 6-12 8-8 7-8 11-5 11-2 10v8l2 9 6 10 16 21 1 4-7 8h-157l5-5 11-10 8-7 14-13 7-8 11-12 11-14 13-18 13-21 12-23 10-25 7-22 5-22 3-25v-30l-3-23-4-17-6-18-9-19-10-16-11-14-12-13-14-12-18-12-21-11-21-8 1-2 8 2 6-1-8-13-7-11-9-15-13-21-33-54-4-6v-2h-6l-2 5-2 3-2-1 7-11z" fill="#2998D2"/>
<path transform="translate(502,5)" d="m0 0h6l11 18 13 21 12 20 13 21 8 13 6 10 8 13 4 7-9 1-7-2-10-2-23-5-26-3h-37l-28 3-30 6-27 8-29 11-23 11h62l24-7 25-5 26-3h36l25 3 25 6 21 8 16 8 14 9 10 8 10 9 7 7 10 13 8 13 8 16 6 17 4 17 2 14v37l-4 25-6 23-6 17-3-1-3-9-11-18-13-21-17-28-22-36-10-16h-4l-1-7v-16l-4-17-8-16-8-10-10-9-14-8-17-5-10-1-370-1 6-7 7-7 8-7 10-9 9 2 27 9 5 1h20l15-4 14-7 14-11 8-10 7-14 2-7 1-11 1-30 19-10 31-13 28-10 3 1 12 18 8 11 9 7 11 4 6 1h12l15-3 12-5 12-7 12-11 7-10 12-19 3-1 2-5z" fill="#226CB0"/>
<path transform="translate(1564,157)" d="m0 0h72l1 1v161l17 3 6 3v56l-4 8-5 3-5 2-6 8-7 4-4 2 3 3v44l-4 8-7 4-2 1-1 22-3 6-5 4-3 2-1 24-5 17-3-4-3-12v-26l-6-2-5-6-1-2-1-22-9-6-3-4-1-3v-46l3-3-10-4-6-7-3-3-8-4-4-6v-58l9-4 14-2z" fill="#226CB0"/>
<path transform="translate(471,141)" d="m0 0h36l25 3 25 6 21 8 16 8 14 9 10 8 10 9 7 7 10 13 8 13 8 16 6 17 4 17 2 14v37l-4 25-6 23-6 17-3-1-3-9-11-18-13-21-17-28-22-36-10-16h-4l-1-7v-16l-4-17-8-16-8-10-10-9-14-8-17-5-27-2-5-1-1-7-8-13-5-5-4-2-2-2z" fill="#226CB0"/>
<path transform="translate(701,323)" d="m0 0h2l10 17 16 26 13 21 15 25 7 11-1 5-8 5-15 6-12 8-8 7-8 11-5 11-2 10v8l2 9 6 10 16 21 1 4-7 8h-157l5-5 11-10 8-7 14-13 7-8 11-12 11-14 13-18 13-21 12-23 10-25 7-22 5-22 1-7 2-4 2-9z" fill="#226CB0"/>
<path transform="translate(502,5)" d="m0 0h6l11 18 13 21 12 20 13 21 8 13 6 10 8 13 4 7-9 1-7-2-10-2-23-5-26-3-29-1-2-2h7l1-4-22-36-5-8v-2l-5-1-1-2 12-7 12-11 7-10 12-19 3-1 2-5z" fill="#226CB0"/>
<path transform="translate(652,453)" d="m0 0h5l9 15 11 18 13 21 11 18 9 15-1 4 2 2h-145l5-5 11-10 8-7 14-13 7-8 11-12 11-14 13-18 5-5z" fill="#226CB0"/>
<path transform="translate(1635,7)" d="m0 0h2v121l-1 1h-72v-55l10-10 8-7 10-10 8-7 10-10 8-7 10-10z" fill="#226DB1"/>
<path transform="translate(1539,572)" d="m0 0h87v18l-1 1h-67l1 11 62 1v19h-63l1 11 66 1v19h-85l-1-1z" fill="#060B0E"/>
<path transform="translate(1423,572)" d="m0 0h87v18l-1 1h-67l1 11 62 1v19h-63l1 11 66 1v19h-85l-1-1z" fill="#060B0E"/>
<path transform="translate(908,572)" d="m0 0h86v19h-67v12h63v18l-1 1h-62v12h67v18l-1 1h-85z" fill="#060B0D"/>
<path transform="translate(1655,572)" d="m0 0h85l6 3 5 5 4 7 2 8v8l-3 10-4 6-6 5-5 2-11 1 12 13 7 8 3 5h-25l-5-5-13-14-7-8-10-11-5-6v-2l50-1 2-4-1-9-1-1-61-1v62h-18l-1-1z" fill="#05080A"/>
<path transform="translate(1159,572)" d="m0 0h70v19l-69 1v38l1 2 4 1h44l1-11h-25l-1-1v-18h45v49l-1 1h-63l-10-2-8-6-6-8-1-4v-42l5-10 7-6z" fill="#05090B"/>
<path transform="translate(1971,572)" d="m0 0h69v19l-67 1-2 3v35l5 3 45 1v-12h-25v-19h44v50h-64l-9-2-9-6-6-9-1-5v-38l3-9 5-6 6-4z" fill="#05090B"/>
<path transform="translate(1835,572)" d="m0 0h20l11 12 7 8 27 30 1 1 1-51h19v81h-18l-9-9-7-8-10-11-7-8-9-10-6-7-1 53h-18l-1-1z" fill="#050A0C"/>
<path transform="translate(1024,572)" d="m0 0h19l8 8 7 8 10 11 7 8 11 12 4 5 1-52h19v80l-1 1h-18l-12-13-7-8-18-20-7-8-3-4-1 52-1 1h-18z" fill="#05080A"/>
<path transform="translate(1307,572)" d="m0 0h20l11 12 7 8 11 12 7 8 10 11v2h2v-53h18v81h-18l-9-9-7-8-18-20-14-16-1 53h-18l-1-1z" fill="#05080A"/>
<path transform="translate(673,414)" d="m0 0 5 3 22 36 6 9 3 9-3 9-1 6v8l2 9 6 10 16 21 1 4-7 8h-12l-3-3 1-3-10-17-8-13-13-21-8-13-11-18-2-5-5 1-2 2v-3l11-19 9-17z" fill="#226DB0"/>
<path transform="translate(1786,572)" d="m0 0h19v81h-18l-1-1z" fill="#05080A"/>
<path transform="translate(1258,572)" d="m0 0h19v81h-18l-1-1z" fill="#071014"/>
<path transform="translate(471,141)" d="m0 0h36l5 5 13 21 3 6v3l-5 1-11-3-27-2-5-1-1-7-8-13-5-5-4-2-2-2z" fill="#226EB1"/>
<path transform="translate(503,198)" d="m0 0 9 1 12 5 8 6 7 7 6 10 3 10 1 14-3 14-3 6h-2l-2-9-16-26-14-23-7-10-10-3v-1z" fill="#226EB1"/>
<path transform="translate(1590,692)" d="m0 0h7l19 28 2 1 2-5 16-24h7v55h-6v-43h-2l-2 5-15 22h-3l-10-15-7-10-1-1v41l-1 1h-6z" fill="#060D10"/>
<path transform="translate(1424,692)" d="m0 0h6l13 17 13 16 7 9 1-42h6v55h-6l-10-13-22-28-1-3-1 1v42l-1 1h-6v-54z" fill="#08151C"/>
<path transform="translate(2007,706)" d="m0 0h13l6 4 2 2 2-6h5v41l-4 7-5 4-7 2h-9l-10-3-4-4 2-3 5 1 4 2h14l5-3 2-4v-8l-7 5-3 1h-9l-8-4-5-6-2-6 1-10 5-8zm4 5-6 3-4 5v11l6 7 2 1h11l6-4 3-4v-10l-4-6-6-3z" fill="#060B0D"/>
<path transform="translate(903,692)" d="m0 0h26l9 4 5 6 1 4v8l-3 6-7 6-8 2h-17v19h-6zm6 6v24h18l8-4 3-6-1-8-6-5-3-1z" fill="#05080A"/>
<path transform="translate(1514,691)" d="m0 0h10l11 4 5 4-2 4-3 1-8-5-3-1h-10l-10 5-4 6-2 8 1 10 4 8 7 5 3 1h11l10-5 4-1 2 4-7 6-9 3h-11l-10-4-6-5-5-9-1-4v-13l4-10 8-8z" fill="#060B0D"/>
<path transform="translate(1378,691)" d="m0 0h10l9 3 6 4v4l-4 2-8-5-3-1h-10l-8 4-6 8-1 3v13l4 8 6 5 5 2h11l8-4 2-2 4 1 2 3-8 6-8 3h-12l-9-4-8-7-4-9-1-4v-8l3-10 6-8 8-5z" fill="#05090B"/>
<path transform="translate(598,169)" d="m0 0 9 5 11 9 10 9 7 7 10 13 8 13 8 16 6 17 4 17 1 11-2-3-5-18-9-17-10-16-14-23-10-16-7-9-8-7-9-6z" fill="#2A98D2"/>
<path transform="translate(1011,706)" d="m0 0h12l8 5 4 8 1 10h-32l3 8 5 4 8 1 8-3 3-2 3 2-2 4-6 4-3 1h-10l-8-4-6-7-2-7 1-11 5-8 5-4zm2 5-6 4-3 5v4h25l-1-7-7-6z" fill="#050A0C"/>
<path transform="translate(1674,706)" d="m0 0h13l7 4 3 4 1 4v29h-6l-1-4-6 4-3 1h-9l-6-3-4-4-1-9 3-5 5-4 4-1h13l5 1-2-7-4-3-9-1-10 2-1-5zm0 21-5 4v8l3 3 3 1h8l7-4 2-4v-7l-3-1z" fill="#060B0E"/>
<path transform="translate(1771,690)" d="m0 0h6l1 22 7-6h12l6 4 3 5 1 4v28h-6l-1-26-3-7-4-2h-7l-6 4-2 5-1 26h-6z" fill="#050708"/>
<path transform="translate(1223,706)" d="m0 0h13l8 5 4 5 2 4v13l-4 8-9 6-3 1h-10l-8-4-6-7-2-6v-8l3-8 4-5zm2 5-6 4-3 3-2 7 1 8 4 6 5 3h11l7-6 2-4v-10l-4-7-7-4z" fill="#050A0C"/>
<path transform="translate(1270,706)" d="m0 0h5l1 6 5-5 2-1h12l6 4 3 5 1 4v28h-6l-1-25-2-6-3-3-2-1h-7l-6 4-2 5-1 26h-6v-40z" fill="#05080A"/>
<path transform="translate(1856,706)" d="m0 0h6l1 5 5-4 2-1h12l6 4 3 6v31h-6l-1-29-4-5-9-1-5 3-3 5-1 27h-6z" fill="#050809"/>
<path transform="translate(1941,706)" d="m0 0h5l2 5 4-4 3-1h11l5 3 4 5 1 3v30h-6l-1-27-3-6-4-2-9 1-4 4-1 2-1 28h-6l-1-2v-38z" fill="#070F13"/>
<path transform="translate(575,254)" d="m0 0 4 1 12 20 16 26 13 21 12 20 11 18 12 19 2 5v7l-3-1-3-9-11-18-13-21-17-28-22-36-10-16h-4z" fill="#2998D2"/>
<path transform="translate(1142,706)" d="m0 0h12l8 4-2 5-8-3h-8l-3 2v5l8 4 10 4 4 5v8l-5 6-5 2h-8l-9-3-4-4 2-3 6 2 7 2 9-1v-7l-4-3-14-5-4-5v-8l4-5z" fill="#050A0C"/>
<path transform="translate(1731,706)" d="m0 0h13l9 6-2 4h-4l-6-4h-8l-6 4-3 4-1 9 3 8 6 4h10l6-4 4 1v4l-5 4-5 2h-10l-8-4-6-7-2-5v-10l5-10 7-5z" fill="#050A0C"/>
<path transform="translate(1066,706)" d="m0 0h13l6 3 3 3-2 4h-3l-7-4h-7l-6 3-4 7v9l3 6 3 3 3 1h10l6-4 5 2-2 4-6 4-3 1h-10l-9-4-6-8-1-3v-13l5-8 5-4z" fill="#060B0D"/>
<path transform="translate(962,706)" d="m0 0h6l1 8 5-5 5-3h6v6l-11 4-4 6-1 4-1 21h-6z" fill="#050A0C"/>
<path transform="translate(559,294)" d="m0 0 4 2 17 28 16 26 13 21 12 20 13 21 6 10-1 6-2-2-2-7-17-28-8-13-22-36-13-21-14-23-4-2z" fill="#2998D2"/>
<path transform="translate(452,61)" d="m0 0h7l6 8 17 28 8 13v4l10 1v1h-21l-2-2h7l1-4-22-36-5-8v-2l-5-1z" fill="#2998D2"/>
<path transform="translate(1828,706)" d="m0 0h6v41h-6z" fill="#050809"/>
<path transform="translate(1913,706)" d="m0 0h5l1 1v40h-6z" fill="#050708"/>
<path transform="translate(1183,706)" d="m0 0h5l1 1v40h-6z" fill="#050708"/>
<path transform="translate(1108,706)" d="m0 0h5v41h-6v-40z" fill="#050708"/>
<path transform="translate(673,414)" d="m0 0 5 3 22 36 6 9 3 9-4 2-3-9-11-18-15-24v-2l-5-1-1-2z" fill="#2998D2"/>
<path transform="translate(654,449)" d="m0 0 4 2 12 20 13 21 14 23 16 26v4l-5-1 1-4-10-17-8-13-13-21-8-13-11-18-2-5-5 1-2 2v-3z" fill="#2897D1"/>
<path transform="translate(492,199)" d="m0 0h11l11 17 14 23 11 18 4 7 1 5-1 2h-2l-2-9-16-26-14-23-7-10-10-3z" fill="#2998D2"/>
<path transform="translate(503,143)" d="m0 0h6l7 9 12 20v4l-5 1-3-2 2-5-8-13-6-9v-2l-5-2z" fill="#2897D1"/>
<path transform="translate(422,70)" d="m0 0 3 1 11 18 13 21 2 3-1 6h-6l-1-2h4l-1-7-11-18-11-17-9-3v-1z" fill="#2897D1"/>
<path transform="translate(460,142)" d="m0 0 8 1 7 9 9 15v4h-4l-1-7-8-13-5-5-4-2z" fill="#2998D2"/>
<path transform="translate(422,70)" d="m0 0 3 1 11 18-1 2-7-10-4-6-9-3v-1z" fill="#2998D2"/>
<path transform="translate(1912,691)" d="m0 0h7v7h-7z" fill="#05090C"/>
<path transform="translate(1107,691)" d="m0 0h7v7h-7z" fill="#05090C"/>
<path transform="translate(1828,691)" d="m0 0h6l1 6-1 1h-6l-1-1v-5z" fill="#091921"/>
<path transform="translate(1182,691)" d="m0 0h7v7h-6l-1-1z" fill="#050708"/>
</svg>
