<?xml version="1.0" standalone="no"?>
<!DOCTYPE svg PUBLIC "-//W3C//DTD SVG 20010904//EN"
 "http://www.w3.org/TR/2001/REC-SVG-20010904/DTD/svg10.dtd">
<svg version="1.0" xmlns="http://www.w3.org/2000/svg"
 width="512.000000pt" height="512.000000pt" viewBox="0 0 512.000000 512.000000"
 preserveAspectRatio="xMidYMid meet">

<g transform="translate(0.000000,512.000000) scale(0.100000,-0.100000)"
fill="#000000" stroke="none">
<path d="M1680 5093 c-305 -29 -643 -118 -990 -259 -178 -73 -614 -291 -651
-325 l-29 -27 0 -739 c0 -427 4 -776 10 -828 41 -366 179 -662 426 -910 113
-114 120 -120 843 -639 474 -340 599 -426 624 -426 24 0 95 46 326 212 163
116 303 216 311 222 12 9 12 7 -1 -14 -9 -14 -113 -194 -232 -401 -190 -328
-217 -381 -217 -418 0 -34 6 -49 29 -71 16 -16 40 -32 53 -35 14 -4 127 12
253 35 178 32 230 38 236 29 4 -7 36 -92 70 -189 86 -242 93 -256 128 -274 41
-22 93 -20 124 4 13 11 114 175 223 365 151 261 203 343 214 339 93 -38 229
-42 317 -10 l42 15 49 -82 c26 -45 117 -203 202 -351 164 -283 174 -296 244
-296 68 0 85 27 172 267 43 120 79 220 80 221 1 2 108 -15 237 -38 225 -41
235 -42 268 -26 41 19 69 62 69 103 0 20 -75 158 -230 428 -127 219 -228 405
-226 412 3 7 36 27 73 45 127 59 218 183 243 330 16 89 1 177 -46 269 -18 38
-34 82 -34 99 0 17 16 61 34 99 19 38 40 98 47 135 31 182 -74 384 -241 463
-36 17 -73 39 -82 50 -10 11 -24 55 -32 102 -19 108 -56 183 -125 252 -105
104 -246 150 -387 126 -39 -7 -83 -10 -98 -6 -15 4 -58 37 -97 73 -38 36 -74
66 -79 66 -6 0 -10 173 -10 480 0 388 -3 487 -14 514 -13 30 -38 45 -282 168
-473 236 -820 357 -1204 419 -93 15 -184 21 -360 24 -129 1 -255 1 -280 -2z
m603 -177 c238 -38 488 -109 737 -208 140 -56 435 -193 555 -259 l80 -44 3
-428 2 -427 -59 0 c-33 0 -66 -3 -75 -6 -14 -6 -16 30 -16 362 0 273 -4 376
-13 394 -9 18 -57 48 -173 106 -377 190 -710 303 -1059 361 -153 25 -542 25
-701 0 -329 -52 -680 -171 -1060 -359 -118 -58 -165 -87 -173 -105 -15 -33
-15 -1253 0 -1378 39 -318 181 -583 423 -784 133 -111 1119 -815 1147 -819 35
-5 44 0 237 139 l164 119 47 -52 c25 -28 46 -55 46 -59 0 -4 -108 -85 -239
-180 -218 -156 -242 -170 -260 -159 -28 17 -1060 758 -1161 833 -114 86 -261
238 -333 345 -102 153 -163 299 -205 492 -19 90 -21 132 -24 852 l-4 757 243
120 c484 239 868 362 1263 405 92 10 513 -3 608 -18z m-173 -886 c323 -78 566
-341 625 -677 l15 -86 -51 -53 c-62 -67 -97 -140 -108 -231 -5 -39 -16 -81
-25 -95 -9 -13 -49 -41 -90 -62 -127 -63 -215 -182 -239 -322 l-11 -62 -71
-21 c-105 -32 -224 -42 -329 -31 -427 49 -746 404 -746 830 0 396 285 743 671
819 86 17 268 12 359 -9z m1614 -665 c22 -10 62 -43 90 -72 90 -95 180 -122
322 -94 87 17 178 -15 245 -86 50 -52 68 -91 78 -172 16 -124 74 -201 191
-254 104 -46 163 -140 164 -257 0 -57 -5 -75 -42 -149 -37 -74 -42 -92 -42
-151 0 -59 5 -77 43 -151 37 -74 42 -92 41 -149 -1 -123 -58 -208 -181 -266
-109 -52 -158 -121 -174 -245 -10 -81 -28 -120 -78 -172 -73 -78 -157 -103
-269 -82 -124 24 -214 -6 -298 -98 -53 -59 -113 -88 -190 -95 -94 -7 -153 17
-230 93 -99 98 -176 124 -299 100 -105 -20 -168 -5 -248 57 -55 44 -87 105
-99 190 -5 40 -16 87 -23 104 -23 55 -85 113 -166 155 -88 46 -128 90 -155
172 -25 76 -16 148 31 237 36 68 40 82 40 150 0 57 -6 85 -21 115 -12 22 -30
56 -40 75 -25 49 -30 137 -10 197 27 82 67 126 155 172 81 42 143 100 166 155
7 17 18 64 23 104 12 85 44 146 99 190 81 63 138 76 245 58 131 -23 198 -1
300 98 40 38 83 70 109 80 57 20 170 16 223 -9z"/>
<path d="M2245 3725 c-22 -8 -42 -15 -44 -15 -3 0 -101 -95 -218 -212 l-213
-212 -63 61 c-34 34 -82 71 -107 82 -114 52 -252 2 -313 -113 -33 -63 -31
-166 5 -227 31 -52 325 -337 378 -365 51 -27 162 -25 215 3 22 12 174 156 337
320 327 329 340 346 339 454 0 163 -163 279 -316 224z"/>
<path d="M3485 3059 c-393 -51 -717 -352 -797 -738 -26 -123 -21 -317 11 -431
88 -323 347 -581 667 -665 530 -139 1064 208 1159 752 27 152 14 306 -38 458
-82 238 -275 449 -505 552 -137 61 -349 92 -497 72z m190 -537 c49 -118 74
-166 89 -172 12 -5 97 -15 190 -22 l169 -13 -142 -124 c-118 -102 -142 -127
-137 -145 38 -153 77 -328 74 -332 -3 -2 -74 38 -160 90 l-154 93 -158 -94
c-86 -52 -159 -93 -160 -92 -2 2 16 84 39 181 l42 178 -138 117 c-76 65 -138
121 -138 124 -1 3 72 11 162 18 89 7 172 15 184 18 17 4 35 35 83 149 33 79
65 156 71 170 5 15 11 25 13 23 2 -2 34 -78 71 -167z"/>
</g>
</svg>
