<svg width="78" height="49" viewBox="0 0 78 49" fill="none" xmlns="http://www.w3.org/2000/svg">
<path opacity="0.4" d="M76.8319 31.5157L65.6837 16.5157C65.386 16.1146 64.8991 15.8755 64.3794 15.8752H58.009V27.8752C58.009 32.0174 54.4439 35.3752 50.046 35.3752H22.9719V44.3752C22.9719 46.8605 25.111 48.8752 27.7497 48.8752H64.3794C64.8997 48.8755 65.3872 48.6363 65.6853 48.2347L76.8335 33.2347C77.2162 32.7183 77.2156 32.0316 76.8319 31.5157Z" fill="#68D585"/>
<path d="M49.3703 33.8752H12.7401C12.2207 33.8753 11.7339 33.6368 11.4357 33.2362L0.28738 18.2362C-0.0957932 17.7201 -0.0957932 17.0334 0.28738 16.5172L11.4357 1.51724C11.7331 1.11552 12.2201 0.875858 12.7401 0.875244H49.3703C52.009 0.875244 54.1482 2.88996 54.1482 5.37524V29.3752C54.1482 31.8605 52.009 33.8752 49.3703 33.8752Z" fill="#68D585"/>
</svg>
